Land_normalized_Motion_pl12
version=1
nRows=14
nColumns=43
inDegrees=yes
endheader
time		pelvis_tilt		pelvis_list		pelvis_rotation		pelvis_tx		pelvis_ty		pelvis_tz		hip_flexion_r		hip_adduction_r		hip_rotation_r		knee_angle_r		ankle_angle_r		subtalar_angle_r		mtp_angle_r		hip_flexion_l		hip_adduction_l		hip_rotation_l		knee_angle_l		ankle_angle_l		subtalar_angle_l		mtp_angle_l		lumbar_extension		lumbar_bending		lumbar_rotation		neck_flexion		neck_lateral_bending		neck_rotation		arm_flex_r		arm_add_r		arm_rot_r		elbow_flex_r		pro_sup_r		wrist_flex_r		wrist_dev_r		hand_finger_flex_r		arm_flex_l		arm_add_l		arm_rot_l		elbow_flex_l		pro_sup_l		wrist_flex_l		wrist_dev_l		hand_finger_flex_l		
0.557500		0.202029		5.649089		85.388065		-0.015454		1.017512		0.635787		26.112722		-2.443006		-9.388476		-25.631056		-16.552823		1.600503		4.251656		29.746667		-7.641598		-9.848271		-30.507816		-25.688854		6.653663		11.581404		-31.897960		1.930375		6.440887		-18.680607		-0.029501		-4.846685		-63.554127		-8.971757		-40.851193		73.325821		102.833376		-2.316600		-17.714065		-5.466997		-61.395696		-10.536763		-24.973270		61.042838		123.980354		-32.342793		-11.025036		-28.554030		
0.560354		0.155561		5.092233		85.580035		-0.016774		1.004277		0.631717		27.858751		-2.569595		-8.705259		-27.659599		-16.471976		1.714436		4.226416		31.524809		-7.395749		-8.718424		-32.595192		-25.769809		6.048522		11.110681		-31.489317		2.140259		6.371174		-18.283533		-0.233752		-4.881094		-62.614799		-8.676241		-41.055743		72.789716		102.570246		-2.554999		-18.168231		-4.798679		-60.720545		-10.506646		-24.874914		60.422291		123.659999		-32.993375		-11.187740		-29.008962		
0.563207		0.140997		5.053602		85.640530		-0.017524		0.992038		0.627618		28.950724		-2.579957		-7.905364		-29.483159		-16.557186		1.955424		4.156352		32.606181		-7.249201		-7.878752		-34.485700		-25.993227		5.829778		10.695717		-31.690967		2.222968		6.350850		-17.717914		-0.420721		-4.888679		-61.541144		-8.379958		-41.210361		72.438644		102.283810		-2.886333		-18.276426		-4.405155		-60.018374		-10.352634		-25.055253		60.067530		123.235783		-33.346396		-11.110406		-29.243298		
0.566061		0.129821		5.166514		85.708537		-0.018279		0.979957		0.623439		29.862351		-2.571919		-7.107246		-31.282916		-16.625016		2.330771		4.212472		33.512175		-7.087514		-7.164564		-36.318238		-26.314467		5.606104		10.534598		-32.074228		2.306175		6.304865		-17.073672		-0.593888		-4.894528		-60.440588		-8.141372		-41.355129		72.120908		101.945667		-3.009843		-18.450393		-4.212225		-59.279292		-10.206626		-25.245343		59.753943		122.925258		-33.745401		-11.073300		-29.470187		
0.568914		0.109625		5.174651		85.796345		-0.019036		0.967518		0.619264		30.931855		-2.539566		-6.287577		-33.153559		-16.579696		2.724375		4.354401		34.563668		-6.904108		-6.486216		-38.148539		-26.640873		5.319073		10.412604		-32.336763		2.395747		6.245185		-16.437136		-0.766518		-4.897661		-59.345337		-7.968488		-41.452101		71.816957		101.551920		-3.086116		-18.674042		-3.964946		-58.533783		-10.119731		-25.369144		59.476319		122.583465		-34.170061		-11.103088		-29.718153		
0.571768		0.062483		5.117724		85.860917		-0.019770		0.954785		0.615018		32.115441		-2.502188		-5.462869		-35.105987		-16.297762		3.274070		4.992959		35.684378		-6.718914		-5.925354		-39.957946		-26.825576		5.149798		10.777245		-32.509678		2.449730		6.192660		-15.823210		-0.906430		-4.864074		-58.257275		-7.864184		-41.501519		71.515086		101.027747		-3.059018		-18.944170		-3.691870		-57.798909		-10.069210		-25.450481		59.252595		122.169965		-34.578552		-11.234659		-29.970280		
0.574621		0.106171		5.329416		85.931906		-0.020254		0.942584		0.610782		32.944713		-2.323175		-4.657604		-36.993735		-15.704022		3.581243		5.590465		36.485737		-6.595952		-5.341292		-41.707868		-26.713928		5.076220		11.192414		-33.024925		2.554067		6.140731		-15.052277		-1.102499		-4.853870		-57.094219		-7.766353		-41.522268		71.341000		100.687847		-3.079331		-19.091453		-3.566365		-57.021602		-9.999291		-25.617869		59.145130		121.872659		-34.862160		-11.255633		-30.133453		
0.577475		0.186746		5.621284		86.001573		-0.020705		0.930439		0.606531		33.683821		-2.089787		-3.920482		-38.983652		-14.436946		3.827477		6.343655		37.184452		-6.511805		-4.795062		-43.485511		-25.934224		5.134834		11.839969		-33.646357		2.686638		6.119716		-14.169941		-1.294230		-4.806158		-55.945298		-7.723233		-41.507390		71.219947		100.396784		-3.004828		-19.274596		-3.495746		-56.224147		-9.969389		-25.753513		59.100040		121.734720		-35.126208		-11.321856		-30.263328		
0.580328		0.157671		4.951355		85.955007		-0.021194		0.916074		0.602332		35.718508		-1.909460		-3.311132		-41.389660		-13.542887		3.994066		13.675877		39.039770		-6.428812		-4.207338		-45.429897		-25.573034		5.316798		19.548422		-33.096704		2.722819		6.141497		-13.773939		-1.377001		-4.705527		-54.937664		-7.922182		-41.207140		70.918029		99.123616		-2.857699		-19.762934		-3.109055		-55.580023		-10.054185		-25.591621		58.943602		120.969942		-35.614518		-11.971267		-30.294281		
0.583182		0.342457		5.546258		85.975040		-0.021683		0.904730		0.597774		36.022304		-1.584459		-2.773208		-43.545969		-10.813967		4.467727		14.869986		39.271527		-6.446701		-3.651532		-47.353793		-22.737861		6.241672		21.058982		-34.029011		2.920498		6.119863		-13.091338		-1.511741		-4.591807		-53.620900		-7.991075		-41.234181		70.800056		99.105005		-2.651559		-20.043863		-3.094957		-54.659134		-10.004324		-25.676189		58.821074		121.331906		-35.918870		-12.056272		-30.309160		
0.586035		0.520263		5.779406		85.945779		-0.022067		0.892484		0.593531		36.867096		-1.200357		-2.367178		-46.072061		-7.582433		4.399541		15.846846		39.983944		-6.455871		-2.985716		-49.506506		-19.469159		6.959882		22.447991		-34.578671		3.102731		6.170457		-12.359590		-1.653496		-4.488453		-52.416437		-8.137638		-41.108037		70.775174		98.833082		-2.371021		-20.375299		-3.194645		-53.802414		-10.013949		-25.690081		58.832772		121.650643		-36.224950		-12.186266		-30.241829		
0.588889		0.713757		5.943344		85.873500		-0.022485		0.880193		0.589397		37.797209		-0.787923		-2.070513		-48.746603		-3.950368		4.164034		16.371480		40.769625		-6.474778		-2.275005		-51.830865		-15.589670		7.747984		23.447320		-35.065638		3.288040		6.246983		-11.641409		-1.790169		-4.380039		-51.189265		-8.347827		-40.929425		70.803619		98.529869		-2.099657		-20.697381		-3.385350		-52.913676		-10.029393		-25.651653		58.853531		122.003154		-36.542675		-12.367928		-30.117487		
0.591742		0.952455		5.956090		85.770363		-0.022895		0.867789		0.585416		38.867974		-0.314562		-1.886505		-51.456817		-0.111122		3.868807		16.192313		41.761563		-6.556229		-1.520732		-54.367588		-11.354536		8.833866		23.973209		-35.416613		3.508789		6.384554		-10.877429		-1.939761		-4.264365		-49.895499		-8.641626		-40.694051		70.749307		98.138049		-1.757141		-21.011419		-3.783892		-51.931045		-10.047560		-25.602850		58.846526		122.455610		-36.926873		-12.534459		-29.823312		
0.594596		1.276605		5.747801		85.620259		-0.023232		0.854965		0.581776		40.275586		0.268899		-1.850984		-54.359114		3.925024		3.382214		13.543823		43.068116		-6.733870		-0.695800		-57.091155		-7.040755		10.026218		22.653482		-35.573573		3.800719		6.609724		-10.015348		-2.017916		-4.169618		-48.708026		-9.002642		-40.377003		70.887634		97.611834		-1.132905		-21.366624		-4.879931		-50.927059		-10.042087		-25.553076		58.885601		123.123332		-37.575370		-12.592886		-28.963632		
